<?xml version="1.0" standalone="no"?>
<!DOCTYPE svg PUBLIC "-//W3C//DTD SVG 20010904//EN"
 "http://www.w3.org/TR/2001/REC-SVG-20010904/DTD/svg10.dtd">
<svg version="1.0" xmlns="http://www.w3.org/2000/svg"
 width="512.000000pt" height="512.000000pt" viewBox="0 0 512.000000 512.000000"
 preserveAspectRatio="xMidYMid meet">
<metadata>
Created by potrace 1.11, written by Peter Selinger 2001-2013
</metadata>
<g transform="translate(0.000000,512.000000) scale(0.100000,-0.100000)"
fill="#000000" stroke="none">
<path d="M2309 5116 c-2 -2 -31 -7 -64 -10 -71 -8 -287 -51 -365 -73 -519
-146 -966 -440 -1303 -856 -205 -252 -345 -507 -443 -807 -19 -58 -37 -114
-39 -125 -2 -11 -4 -20 -5 -20 -5 0 -58 -265 -64 -320 -26 -225 -26 -508 0
-675 7 -48 32 -189 39 -220 2 -14 7 -34 9 -45 23 -113 98 -326 167 -473 21
-46 36 -89 32 -95 -3 -5 -2 -8 3 -4 5 3 25 -25 44 -61 19 -37 37 -69 40 -72
10 -10 60 -90 60 -96 0 -10 179 -244 224 -292 137 -149 256 -258 395 -362 89
-66 292 -193 338 -211 15 -6 35 -16 43 -23 25 -22 277 -122 390 -155 220 -65
329 -87 545 -107 78 -7 364 -7 425 0 143 17 197 24 230 32 14 2 36 6 50 8 48
7 227 55 316 85 264 87 560 246 764 410 24 20 53 43 64 51 11 8 57 51 104 95
46 44 87 82 91 85 3 3 36 39 71 80 36 41 67 77 70 80 59 59 290 410 290 441 0
6 5 7 12 3 6 -4 8 -3 4 4 -3 6 2 26 12 44 63 113 171 414 198 551 2 10 5 26 8
35 3 9 8 33 11 52 3 19 10 60 15 90 21 120 25 185 24 425 0 237 -6 303 -39
480 -21 111 -89 342 -129 440 -9 22 -21 49 -25 60 -28 68 -112 232 -155 304
-29 48 -59 97 -67 111 -7 13 -20 30 -27 38 -6 7 -26 34 -44 60 -35 51 -38 55
-125 157 -401 469 -978 783 -1603 870 -51 7 -585 17 -591 11z"/>
</g>
</svg>
